<svg width="25" height="25" viewBox="0 0 25 25" fill="none" xmlns="http://www.w3.org/2000/svg">
<g clip-path="url(#clip0_266_139)">
<path d="M16.6288 9.07001C16.6288 10.2728 16.151 11.4263 15.3005 12.2768C14.45 13.1273 13.2965 13.6051 12.0937 13.6051C10.8909 13.6051 9.73739 13.1273 8.88689 12.2768C8.0364 11.4263 7.55859 10.2728 7.55859 9.07001C7.55859 7.86723 8.0364 6.71371 8.88689 5.86321C9.73739 5.01272 10.8909 4.53491 12.0937 4.53491C13.2965 4.53491 14.45 5.01272 15.3005 5.86321C16.151 6.71371 16.6288 7.86723 16.6288 9.07001Z" fill="#7C8188"/>
<path fill-rule="evenodd" clip-rule="evenodd" d="M0 12.0935C0 8.88605 1.27414 5.81 3.54213 3.54201C5.81012 1.27402 8.88618 -0.00012207 12.0936 -0.00012207C15.301 -0.00012207 18.3771 1.27402 20.6451 3.54201C22.913 5.81 24.1872 8.88605 24.1872 12.0935C24.1872 15.3009 22.913 18.3769 20.6451 20.6449C18.3771 22.9129 15.301 24.1871 12.0936 24.1871C8.88618 24.1871 5.81012 22.9129 3.54213 20.6449C1.27414 18.3769 0 15.3009 0 12.0935ZM12.0936 1.51158C10.1008 1.51168 8.14861 2.07448 6.46161 3.13518C4.77461 4.19589 3.4214 5.7114 2.55774 7.50727C1.69408 9.30314 1.35507 11.3064 1.57972 13.2864C1.80438 15.2665 2.58357 17.1429 3.82762 18.6996C4.90093 16.9702 7.26372 15.1169 12.0936 15.1169C16.9235 15.1169 19.2848 16.9687 20.3596 18.6996C21.6036 17.1429 22.3828 15.2665 22.6075 13.2864C22.8321 11.3064 22.4931 9.30314 21.6295 7.50727C20.7658 5.7114 19.4126 4.19589 17.7256 3.13518C16.0386 2.07448 14.0864 1.51168 12.0936 1.51158Z" fill="#7C8188"/>
</g>
<defs>
<clipPath id="clip0_266_139">
<rect width="24.1872" height="24.1872" fill="white"/>
</clipPath>
</defs>
</svg>
