<svg width="23" height="24" viewBox="0 0 23 24" fill="none" xmlns="http://www.w3.org/2000/svg">
<path d="M8.80898 23.1117V17.2834C8.80898 16.876 9.2247 16.4602 9.64041 16.4602H12.9662C13.3819 16.4602 13.7976 16.876 13.7976 17.2917V23.1117C13.7976 23.3322 13.8852 23.5437 14.0411 23.6996C14.197 23.8556 14.4085 23.9432 14.629 23.9432H21.2805C21.501 23.9432 21.7125 23.8556 21.8684 23.6996C22.0243 23.5437 22.1119 23.3322 22.1119 23.1117V11.4716C22.1121 11.3624 22.0908 11.2542 22.0491 11.1531C22.0075 11.0521 21.9463 10.9603 21.8692 10.883L19.6176 8.63312V3.15729C19.6176 2.93678 19.53 2.7253 19.3741 2.56938C19.2182 2.41345 19.0067 2.32585 18.7862 2.32585H17.1233C16.9028 2.32585 16.6913 2.41345 16.5354 2.56938C16.3795 2.7253 16.2919 2.93678 16.2919 3.15729V5.30738L11.8919 0.905764C11.8147 0.828336 11.723 0.766904 11.6219 0.724989C11.5209 0.683074 11.4126 0.661499 11.3033 0.661499C11.1939 0.661499 11.0856 0.683074 10.9846 0.724989C10.8836 0.766904 10.7919 0.828336 10.7146 0.905764L0.737409 10.883C0.660249 10.9603 0.599092 11.0521 0.557434 11.1531C0.515776 11.2542 0.494435 11.3624 0.49463 11.4716V23.1117C0.49463 23.3322 0.582228 23.5437 0.738152 23.6996C0.894076 23.8556 1.10555 23.9432 1.32607 23.9432H7.97754C8.19805 23.9432 8.40953 23.8556 8.56546 23.6996C8.72138 23.5437 8.80898 23.3322 8.80898 23.1117Z" fill="#2AA663"/>
</svg>
