<svg width="211" height="211" viewBox="0 0 211 211" fill="none" xmlns="http://www.w3.org/2000/svg">
<g id="vuesax/linear/microphone-2">
<g id="microphone-2">
<path id="Vector" d="M105.628 136.052C124.93 136.052 140.564 120.418 140.564 101.116V53.0789C140.564 33.7768 124.93 18.1429 105.628 18.1429C86.3262 18.1429 70.6924 33.7768 70.6924 53.0789V101.116C70.6924 120.418 86.3262 136.052 105.628 136.052Z" stroke="white" stroke-width="13.101" stroke-linecap="round" stroke-linejoin="round"/>
<path id="Vector_2" d="M38.814 84.9582V99.806C38.814 136.663 68.7716 166.621 105.629 166.621C142.486 166.621 172.444 136.663 172.444 99.806V84.9582" stroke="white" stroke-width="13.101" stroke-linecap="round" stroke-linejoin="round"/>
<path id="Vector_3" d="M93.4868 56.8345C101.347 53.9523 109.907 53.9523 117.767 56.8345" stroke="white" stroke-width="13.101" stroke-linecap="round" stroke-linejoin="round"/>
<path id="Vector_4" d="M98.6426 75.3507C103.272 74.1279 108.075 74.1279 112.704 75.3507" stroke="white" stroke-width="13.101" stroke-linecap="round" stroke-linejoin="round"/>
<path id="Line" d="M105.628 166.621V192.823" stroke="white" stroke-width="13.101" stroke-linecap="round" stroke-linejoin="round"/>
</g>
</g>
</svg>
